<svg width="32" height="32" viewBox="0 0 32 32" fill="none" xmlns="http://www.w3.org/2000/svg">
<path d="M16.0329 31.0333L11.5329 26.6666H5.33288V20.4666L0.866211 16L5.33288 11.5333V5.3333H11.5329L16.0329 0.866638L20.4662 5.3333H26.6662V11.5333L31.1329 16L26.6662 20.4666V26.6666H20.4662L16.0329 31.0333ZM16.0329 28.2333L19.6301 24.6666H24.6662V19.6333L28.2995 16L24.6662 12.3666V7.3333H19.6329L16.0329 3.69997L12.3662 7.3333H7.33288V12.3666L3.69954 16L7.33288 19.6333V24.6666H12.3329L16.0329 28.2333ZM12.0995 21.6666L15.9995 19.3L19.8995 21.6666L18.8662 17.2333L22.3329 14.2333L17.7662 13.8666L15.9995 9.66664L14.2329 13.8666L9.66621 14.2333L13.1329 17.2333L12.0995 21.6666Z" fill="#2D3243"/>
</svg>
