<svg width="21" height="21" viewBox="0 0 21 21" fill="none" xmlns="http://www.w3.org/2000/svg">
<path d="M9.5 5.9375H11.5V7.9375H9.5V5.9375ZM9.5 9.9375H11.5V15.9375H9.5V9.9375ZM10.5 0.9375C4.98 0.9375 0.5 5.4175 0.5 10.9375C0.5 16.4575 4.98 20.9375 10.5 20.9375C16.02 20.9375 20.5 16.4575 20.5 10.9375C20.5 5.4175 16.02 0.9375 10.5 0.9375ZM10.5 18.9375C6.09 18.9375 2.5 15.3475 2.5 10.9375C2.5 6.5275 6.09 2.9375 10.5 2.9375C14.91 2.9375 18.5 6.5275 18.5 10.9375C18.5 15.3475 14.91 18.9375 10.5 18.9375Z" fill="#394055"/>
</svg>
