<svg width="24" height="25" viewBox="0 0 24 25" fill="none" xmlns="http://www.w3.org/2000/svg">
<rect y="0.00195312" width="24" height="24" rx="12" fill="url(#paint0_linear_327_135048)"/>
<path d="M12.0002 5.28655C14.1866 5.28655 14.4458 5.29375 15.3098 5.33455C16.109 5.37055 16.5434 5.50495 16.8314 5.61775C17.213 5.76655 17.4866 5.94415 17.7722 6.22975C18.0578 6.51535 18.2354 6.78895 18.3842 7.17055C18.497 7.45855 18.629 7.89295 18.6674 8.69215C18.7058 9.55615 18.7154 9.81535 18.7154 12.0017C18.7154 14.1881 18.7082 14.4473 18.6674 15.3113C18.6314 16.1105 18.497 16.5449 18.3842 16.8329C18.2354 17.2145 18.0578 17.4881 17.7722 17.7737C17.4866 18.0593 17.213 18.2369 16.8314 18.3857C16.5434 18.4985 16.109 18.6305 15.3098 18.6689C14.4458 18.7073 14.1866 18.7169 12.0002 18.7169C9.81384 18.7169 9.55464 18.7097 8.69064 18.6689C7.89144 18.6329 7.45704 18.4985 7.16904 18.3857C6.78744 18.2369 6.51384 18.0593 6.22824 17.7737C5.94264 17.4881 5.76504 17.2145 5.61624 16.8329C5.50344 16.5449 5.37144 16.1105 5.33304 15.3113C5.29464 14.4473 5.28504 14.1881 5.28504 12.0017C5.28504 9.81535 5.29224 9.55615 5.33304 8.69215C5.36904 7.89295 5.50344 7.45855 5.61624 7.17055C5.76504 6.78895 5.94264 6.51535 6.22824 6.22975C6.51384 5.94415 6.78744 5.76655 7.16904 5.61775C7.45704 5.50495 7.89144 5.37295 8.69064 5.33455C9.55464 5.29375 9.81384 5.28655 12.0002 5.28655ZM12.0002 3.81055C9.77544 3.81055 9.49704 3.82015 8.62344 3.86095C7.75224 3.90175 7.15704 4.03855 6.63384 4.24255C6.09624 4.44895 5.63784 4.72975 5.18424 5.18575C4.72824 5.64175 4.44984 6.09775 4.23864 6.63775C4.03704 7.15855 3.89784 7.75375 3.85704 8.62735C3.81624 9.50095 3.80664 9.77935 3.80664 12.0041C3.80664 14.2289 3.81624 14.5073 3.85704 15.3809C3.89784 16.2521 4.03464 16.8473 4.23864 17.3705C4.44744 17.9057 4.72824 18.3641 5.18424 18.8177C5.64024 19.2737 6.09624 19.5521 6.63624 19.7633C7.15704 19.9649 7.75224 20.1041 8.62584 20.1449C9.49944 20.1857 9.77784 20.1953 12.0026 20.1953C14.2274 20.1953 14.5058 20.1857 15.3794 20.1449C16.2506 20.1041 16.8458 19.9673 17.369 19.7633C17.9042 19.5545 18.3626 19.2737 18.8162 18.8177C19.2722 18.3617 19.5506 17.9057 19.7618 17.3657C19.9634 16.8449 20.1026 16.2497 20.1434 15.3761C20.1842 14.5025 20.1938 14.2241 20.1938 11.9993C20.1938 9.77455 20.1842 9.49615 20.1434 8.62255C20.1026 7.75135 19.9658 7.15615 19.7618 6.63295C19.553 6.09775 19.2722 5.63935 18.8162 5.18575C18.3602 4.72975 17.9042 4.45135 17.3642 4.24015C16.8434 4.03855 16.2482 3.89935 15.3746 3.85855C14.5034 3.82015 14.225 3.81055 12.0002 3.81055Z" fill="white"/>
<path d="M12.0002 7.79492C9.67697 7.79492 7.79297 9.67892 7.79297 12.0021C7.79297 14.3253 9.67697 16.2093 12.0002 16.2093C14.3234 16.2093 16.2074 14.3253 16.2074 12.0021C16.2074 9.67892 14.3234 7.79492 12.0002 7.79492ZM12.0002 14.7333C10.493 14.7333 9.26897 13.5117 9.26897 12.0021C9.26897 10.4925 10.493 9.27092 12.0002 9.27092C13.5074 9.27092 14.7314 10.4925 14.7314 12.0021C14.7314 13.5117 13.5074 14.7333 12.0002 14.7333Z" fill="white"/>
<path d="M16.3727 8.61302C16.9161 8.61302 17.3567 8.17247 17.3567 7.62902C17.3567 7.08557 16.9161 6.64502 16.3727 6.64502C15.8292 6.64502 15.3887 7.08557 15.3887 7.62902C15.3887 8.17247 15.8292 8.61302 16.3727 8.61302Z" fill="white"/>
<defs>
<linearGradient id="paint0_linear_327_135048" x1="3.51472" y1="20.4872" x2="20.4853" y2="3.51667" gradientUnits="userSpaceOnUse">
<stop stop-color="#FFD521"/>
<stop offset="0.0551048" stop-color="#FFD020"/>
<stop offset="0.1241" stop-color="#FEC01E"/>
<stop offset="0.2004" stop-color="#FCA71B"/>
<stop offset="0.2821" stop-color="#FA8316"/>
<stop offset="0.3681" stop-color="#F85510"/>
<stop offset="0.4563" stop-color="#F51E09"/>
<stop offset="0.5" stop-color="#F30005"/>
<stop offset="0.5035" stop-color="#F20007"/>
<stop offset="0.5966" stop-color="#E1003B"/>
<stop offset="0.6879" stop-color="#D30067"/>
<stop offset="0.7757" stop-color="#C70088"/>
<stop offset="0.8589" stop-color="#BF00A0"/>
<stop offset="0.9357" stop-color="#BB00AF"/>
<stop offset="1" stop-color="#B900B4"/>
</linearGradient>
</defs>
</svg>
