<svg width="24" height="25" viewBox="0 0 24 25" fill="none" xmlns="http://www.w3.org/2000/svg">
<rect y="0.00195312" width="24" height="24" rx="12" fill="#0A66C2"/>
<path d="M17.626 5.40186H6.37481C6.11638 5.40186 5.86853 5.50452 5.68579 5.68726C5.50305 5.86999 5.40039 6.11784 5.40039 6.37627V17.6274C5.40039 17.8859 5.50305 18.1337 5.68579 18.3165C5.86853 18.4992 6.11638 18.6019 6.37481 18.6019H17.626C17.8844 18.6019 18.1323 18.4992 18.315 18.3165C18.4977 18.1337 18.6004 17.8859 18.6004 17.6274V6.37627C18.6004 6.11784 18.4977 5.86999 18.315 5.68726C18.1323 5.50452 17.8844 5.40186 17.626 5.40186ZM9.33472 16.6466H7.35014V10.3427H9.33472V16.6466ZM8.34106 9.46911C8.11594 9.46784 7.89624 9.39991 7.70969 9.2739C7.52314 9.14789 7.3781 8.96945 7.29287 8.76108C7.20764 8.55272 7.18605 8.32378 7.23081 8.10316C7.27557 7.88253 7.38468 7.68011 7.54438 7.52144C7.70407 7.36276 7.90719 7.25495 8.1281 7.21161C8.34901 7.16827 8.5778 7.19133 8.78561 7.2779C8.99343 7.36446 9.17094 7.51065 9.29575 7.698C9.42056 7.88536 9.48707 8.10549 9.48689 8.33061C9.48901 8.48132 9.46077 8.63093 9.40385 8.7705C9.34692 8.91007 9.26248 9.03675 9.15555 9.14299C9.04863 9.24923 8.92141 9.33286 8.78147 9.38889C8.64154 9.44492 8.49176 9.4722 8.34106 9.46911ZM16.6497 16.6521H14.6661V13.2082C14.6661 12.1925 14.2343 11.879 13.677 11.879C13.0885 11.879 12.511 12.3227 12.511 13.2339V16.6521H10.5264V10.3473H12.4349V11.2209H12.4606C12.6521 10.8331 13.3231 10.1704 14.3471 10.1704C15.4544 10.1704 16.6506 10.8276 16.6506 12.7526L16.6497 16.6521Z" fill="white"/>
</svg>
