<svg width="28" height="28" viewBox="0 0 28 28" fill="none" xmlns="http://www.w3.org/2000/svg">
<path d="M2.00033 25.2667V8.86675C1.68921 8.8223 1.38921 8.60008 1.10033 8.20008C0.811437 7.80008 0.666992 7.36675 0.666992 6.90008V2.66675C0.666992 2.15564 0.866992 1.69453 1.26699 1.28341C1.66699 0.872304 2.13366 0.666748 2.66699 0.666748H25.3337C25.8448 0.666748 26.3059 0.872304 26.717 1.28341C27.1281 1.69453 27.3337 2.15564 27.3337 2.66675V6.90008C27.3337 7.36675 27.1892 7.80008 26.9003 8.20008C26.6114 8.60008 26.3114 8.8223 26.0003 8.86675V25.2667C26.0003 25.7779 25.7948 26.2501 25.3837 26.6834C24.9725 27.1167 24.5114 27.3334 24.0003 27.3334H4.00033C3.46699 27.3334 3.00033 27.1167 2.60033 26.6834C2.20033 26.2501 2.00033 25.7779 2.00033 25.2667ZM4.00033 8.90008V25.3334H24.0003V8.90008H4.00033ZM25.3337 6.90008V2.66675H2.66699V6.90008H25.3337ZM10.0003 15.9001H18.0003V13.9001H10.0003V15.9001Z" fill="#2D3243"/>
</svg>
