<svg width="38" height="39" viewBox="0 0 38 39" fill="none" xmlns="http://www.w3.org/2000/svg">
<path fill-rule="evenodd" clip-rule="evenodd" d="M19 34.1729C27.2843 34.1729 34 27.4571 34 19.1729C34 10.8886 27.2843 4.17285 19 4.17285C10.7157 4.17285 4 10.8886 4 19.1729C4 27.4571 10.7157 34.1729 19 34.1729Z" fill="#F7CB2F"/>
<path d="M19 36.1729C28.3888 36.1729 36 28.5617 36 19.1729C36 9.78401 28.3888 2.17285 19 2.17285C9.61116 2.17285 2 9.78401 2 19.1729C2 28.5617 9.61116 36.1729 19 36.1729Z" stroke="#F7CB2F" stroke-opacity="0.2" stroke-width="4"/>
<path d="M12 18.6729H25" stroke="#2D3243" stroke-width="2" stroke-linecap="round" stroke-linejoin="round"/>
<path d="M21 15.1729L25 19.1729L21 23.1729" stroke="#2D3243" stroke-width="2" stroke-linecap="round" stroke-linejoin="round"/>
</svg>
