<svg width="159" height="185" viewBox="0 0 159 185" fill="none" xmlns="http://www.w3.org/2000/svg">
<path d="M103.583 33.5554C113.633 39.8865 122.038 48.7156 126.872 59.5659C131.619 70.2221 131.501 82.0655 130.364 93.6756C129.206 105.517 127.148 117.455 120.257 127.153C113.069 137.269 102.917 145.373 91.0507 149.003C79.2477 152.614 66.7375 150.379 54.8178 147.174C42.8899 143.966 30.4597 140.047 22.5284 130.579C14.71 121.245 14.3956 108.288 12.2129 96.3097C9.99471 84.1365 5.62223 71.7212 9.67301 60.0293C13.8373 48.01 23.5951 38.6423 34.4755 32.0527C45.0445 25.6517 57.4462 23.3458 69.7995 23.6144C81.7779 23.8749 93.4454 27.1695 103.583 33.5554Z" fill="#E7BE2C"/>
<g filter="url(#filter0_d_327_134642)">
<g clip-path="url(#clip0_327_134642)">
<rect width="82.6772" height="114.37" rx="16.5354" transform="matrix(-0.965926 -0.258818 -0.25882 0.965926 128.755 22.7065)" fill="#292D37"/>
</g>
</g>
<g filter="url(#filter1_d_327_134642)">
<g clip-path="url(#clip1_327_134642)">
<rect width="88.189" height="110.236" rx="16.5354" transform="matrix(-0.965926 -0.258818 -0.25882 0.965926 132.065 23.5936)" fill="#394055"/>
<path d="M51.4999 76.995C53.6952 76.0425 54.6988 75.5982 54.5105 75.6618C60.8836 72.7474 65.9317 70.3054 69.655 68.3358C73.4315 66.3805 76.7645 64.1636 79.654 61.6853C82.5435 59.207 84.3734 56.5304 85.1437 53.6554C85.7286 51.4726 85.6793 49.6334 84.9959 48.1378C84.3124 46.6422 82.9592 45.6234 80.936 45.0813C78.9129 44.5392 77.1089 44.8832 75.5239 46.1134C74.0064 47.3045 72.8768 49.2843 72.135 52.0528L58.9581 48.5221C60.2771 44.0252 62.2483 40.502 64.8716 37.9523C67.5481 35.4169 70.5697 33.8299 73.9363 33.1913C77.3562 32.567 80.9029 32.747 84.5764 33.7313C90.912 35.4289 95.2419 38.3295 97.5661 42.433C99.9435 46.5509 100.433 51.2186 99.0352 56.4361C97.5087 62.1327 94.146 66.9094 88.9471 70.7661C83.7624 74.5696 77.5414 77.9812 70.2842 81.0011L91.8464 86.7786L88.872 97.8792L48.7823 87.1372L51.4999 76.995Z" fill="white"/>
</g>
<rect x="-0.42191" y="0.24359" width="87.5001" height="109.547" rx="16.1909" transform="matrix(-0.965926 -0.258818 -0.25882 0.965926 131.299 23.4927)" stroke="#292D38" stroke-width="0.688976"/>
</g>
<rect width="8.26772" height="8.26769" rx="2.7559" transform="matrix(-0.965926 -0.258818 -0.25882 0.965926 158.002 56.737)" fill="#394055"/>
<rect width="2.75591" height="2.7559" rx="1.37795" transform="matrix(0.939693 -0.342019 -0.342021 -0.939692 0.942383 119.536)" fill="#E7BE2C"/>
<rect width="5.51181" height="5.5118" rx="1.37795" transform="matrix(0.939693 -0.342019 -0.342021 -0.939692 7.83203 15.5007)" fill="#E7BE2C"/>
<defs>
<filter id="filter0_d_327_134642" x="8.27033" y="1.30811" width="131.508" height="186.989" filterUnits="userSpaceOnUse" color-interpolation-filters="sRGB">
<feFlood flood-opacity="0" result="BackgroundImageFix"/>
<feColorMatrix in="SourceAlpha" type="matrix" values="0 0 0 0 0 0 0 0 0 0 0 0 0 0 0 0 0 0 127 0" result="hardAlpha"/>
<feMorphology radius="33.0708" operator="erode" in="SourceAlpha" result="effect1_dropShadow_327_134642"/>
<feOffset dy="44.0944"/>
<feGaussianBlur stdDeviation="22.0472"/>
<feColorMatrix type="matrix" values="0 0 0 0 0.0583333 0 0 0 0 0.0583333 0 0 0 0 0.0583333 0 0 0 0.08 0"/>
<feBlend mode="multiply" in2="BackgroundImageFix" result="effect1_dropShadow_327_134642"/>
<feBlend mode="normal" in="SourceGraphic" in2="effect1_dropShadow_327_134642" result="shape"/>
</filter>
<filter id="filter1_d_327_134642" x="12.8378" y="0.768738" width="124.739" height="162.375" filterUnits="userSpaceOnUse" color-interpolation-filters="sRGB">
<feFlood flood-opacity="0" result="BackgroundImageFix"/>
<feColorMatrix in="SourceAlpha" type="matrix" values="0 0 0 0 0 0 0 0 0 0 0 0 0 0 0 0 0 0 127 0" result="hardAlpha"/>
<feMorphology radius="16.5354" operator="erode" in="SourceAlpha" result="effect1_dropShadow_327_134642"/>
<feOffset dy="27.559"/>
<feGaussianBlur stdDeviation="11.0236"/>
<feColorMatrix type="matrix" values="0 0 0 0 0.0583333 0 0 0 0 0.0583333 0 0 0 0 0.0583333 0 0 0 0.12 0"/>
<feBlend mode="multiply" in2="BackgroundImageFix" result="effect1_dropShadow_327_134642"/>
<feBlend mode="normal" in="SourceGraphic" in2="effect1_dropShadow_327_134642" result="shape"/>
</filter>
<clipPath id="clip0_327_134642">
<rect width="82.6772" height="114.37" rx="16.5354" transform="matrix(-0.965926 -0.258818 -0.25882 0.965926 128.755 22.7065)" fill="white"/>
</clipPath>
<clipPath id="clip1_327_134642">
<rect width="88.189" height="110.236" rx="16.5354" transform="matrix(-0.965926 -0.258818 -0.25882 0.965926 132.065 23.5936)" fill="white"/>
</clipPath>
</defs>
</svg>
