<svg width="99" height="18" viewBox="0 0 99 18" fill="none" xmlns="http://www.w3.org/2000/svg">
<path d="M20.5927 15.3643C22.342 17.0794 24.4613 17.937 26.9507 17.937C29.4624 17.937 31.5819 17.0794 33.3089 15.3643C35.0582 13.6265 35.9327 11.5051 35.9327 9.00002C35.9327 6.49494 35.0582 4.3848 33.3089 2.66962C31.5819 0.931857 29.4624 0.0629883 26.9507 0.0629883C24.4613 0.0629883 22.342 0.931857 20.5927 2.66962C18.8434 4.3848 17.9688 6.49494 17.9688 9.00002C17.9688 11.5051 18.8434 13.6265 20.5927 15.3643Z" fill="#F7CB2F"/>
<path d="M0 0.0629883H3.99808H13.9659H17.964L9.05215 17.937L0 0.0629883Z" fill="#2E5CFF"/>
<path d="M40.8691 0H44.5575L48.2964 10.7093L48.9532 13.0221H49.1553L49.8627 10.7093L53.7532 0H57.4415L50.8479 17.8741H47.2606L40.8691 0Z" fill="#394055"/>
<path fill-rule="evenodd" clip-rule="evenodd" d="M63.3875 17.9998C67.0905 17.9998 70.0923 15.013 70.0923 11.3285C70.0923 7.64407 67.0905 4.65723 63.3875 4.65723C59.6845 4.65723 56.6826 7.64407 56.6826 11.3285C56.6826 15.013 59.6845 17.9998 63.3875 17.9998ZM63.3892 14.8527C65.3457 14.8527 66.9317 13.2747 66.9317 11.3282C66.9317 9.3817 65.3457 7.80374 63.3892 7.80374C61.4328 7.80374 59.8468 9.3817 59.8468 11.3282C59.8468 13.2747 61.4328 14.8527 63.3892 14.8527Z" fill="#394055"/>
<path d="M72.6201 17.8741V0H75.9095V17.8741H72.6201Z" fill="#394055"/>
<path d="M84.2592 15.1043C82.6145 15.1043 81.7295 14.5757 81.7295 12.9393V7.77848L85.7781 7.80365V5.03443H81.7288V1.76172H78.4395V13.1659C78.4395 16.1617 80.768 17.8735 83.7538 17.8735H85.7774V15.1043H84.2592Z" fill="#394055"/>
<path d="M87.8037 15.2057L94.0536 8.3078H87.8037V5.53857H98.178V8.3078L91.8016 15.105H98.178V17.8742H87.8037V15.2057Z" fill="#394055"/>
</svg>
